<svg xmlns="http://www.w3.org/2000/svg" width="36" height="36">
    <path data-name="Path 4778" d="M219.584-375.276a6.2 6.2 0 0 1 2.4-5.633l.171-.131a1.571 1.571 0 0 1 2.01.131l1.845 1.845a1.546 1.546 0 0 1 0 2.18l-.881 1.142a2.369 2.369 0 0 0-.3 2.365c.857 2.016 2.847 5.7 6.186 6.441a2.408 2.408 0 0 0 1.982-.452l1.42-1.092a1.542 1.542 0 0 1 2.177 0l1.845 1.845a1.573 1.573 0 0 1 .121 2.03l-.121.151a6.984 6.984 0 0 1-7.281 2.445 15.53 15.53 0 0 1-6.842-4.247 15.312 15.312 0 0 1-4.732-9.02z" transform="translate(-211.041 388.843)" style="stroke:gray;stroke-miterlimit:2;fill:none"/>
    <path data-name="Rectangle 1388" style="fill:none" d="M0 0h36v36H0z"/>
</svg>
