<svg xmlns="http://www.w3.org/2000/svg" width="73" height="73">
    <path d="M11260.5-7305a36.265 36.265 0 0 1-14.207-2.868 36.366 36.366 0 0 1-11.6-7.823 36.4 36.4 0 0 1-7.822-11.6 36.271 36.271 0 0 1-2.871-14.209 36.267 36.267 0 0 1 2.868-14.207 36.4 36.4 0 0 1 7.822-11.6 36.366 36.366 0 0 1 11.6-7.823 36.265 36.265 0 0 1 14.21-2.87 36.265 36.265 0 0 1 14.207 2.868 36.366 36.366 0 0 1 11.6 7.823 36.4 36.4 0 0 1 7.822 11.6 36.267 36.267 0 0 1 2.871 14.209 36.271 36.271 0 0 1-2.868 14.208 36.4 36.4 0 0 1-7.822 11.6 36.366 36.366 0 0 1-11.6 7.823 36.265 36.265 0 0 1-14.21 2.869zm-5-46.034a2.005 2.005 0 0 0-2 2v15.063a2 2 0 0 0 2 2 1.983 1.983 0 0 0 1-.272l13.008-7.53a1.982 1.982 0 0 0 1-1.73 1.982 1.982 0 0 0-1-1.731l-13.008-7.53a1.968 1.968 0 0 0-1-.269z" transform="translate(-11224 7377.999)" style="fill:#fff"/>
</svg>
