<?xml version="1.0" encoding="UTF-8"?>
<!DOCTYPE svg PUBLIC "-//W3C//DTD SVG 1.1//EN" "http://www.w3.org/Graphics/SVG/1.1/DTD/svg11.dtd">
<!-- Creator: CorelDRAW X7 -->
<svg xmlns="http://www.w3.org/2000/svg" xml:space="preserve" width="900px" height="636px" version="1.1" style="shape-rendering:geometricPrecision; text-rendering:geometricPrecision; image-rendering:optimizeQuality; fill-rule:evenodd; clip-rule:evenodd"
viewBox="0 0 900 636"
 xmlns:xlink="http://www.w3.org/1999/xlink">
 <defs>
  <style type="text/css">
   <![CDATA[
    .fil0 {fill:#FEFEFE}
    .fil3 {fill:black;fill-rule:nonzero}
    .fil2 {fill:url(#id0);fill-rule:nonzero}
    .fil1 {fill:url(#id1);fill-rule:nonzero}
   ]]>
  </style>
  <linearGradient id="id0" gradientUnits="userSpaceOnUse" x1="177.985" y1="168.7" x2="91.6427" y2="95.8276">
   <stop offset="0" style="stop-opacity:1; stop-color:#B49C45"/>
   <stop offset="0.121569" style="stop-opacity:1; stop-color:#B8A149"/>
   <stop offset="0.270588" style="stop-opacity:1; stop-color:#F6E084"/>
   <stop offset="0.501961" style="stop-opacity:1; stop-color:#BEA854"/>
   <stop offset="0.741176" style="stop-opacity:1; stop-color:#F5E084"/>
   <stop offset="1" style="stop-opacity:1; stop-color:#B59E46"/>
  </linearGradient>
  <linearGradient id="id1" gradientUnits="userSpaceOnUse" x1="165.528" y1="161.404" x2="107.596" y2="106.62">
   <stop offset="0" style="stop-opacity:1; stop-color:#B49C45"/>
   <stop offset="0.121569" style="stop-opacity:1; stop-color:#B8A149"/>
   <stop offset="0.341176" style="stop-opacity:1; stop-color:#F6E084"/>
   <stop offset="0.431373" style="stop-opacity:1; stop-color:#BEA854"/>
   <stop offset="0.741176" style="stop-opacity:1; stop-color:#F5E084"/>
   <stop offset="1" style="stop-opacity:1; stop-color:#B59E46"/>
  </linearGradient>
 </defs>
 <g id="Warstwa_x0020_1">
  <metadata id="CorelCorpID_0Corel-Layer"/>
  <polygon class="fil0" points="87,86 721,86 721,180 87,180 "/>
  <path class="fil1" d="M162 166c-1,0 -2,1 -3,1 0,0 -2,-1 -2,-1 1,-1 3,-4 3,-4 0,0 0,-1 0,-1 -2,-4 -7,-8 -15,-14 -10,-6 -19,-11 -28,-17 -4,-3 -7,-5 -9,-8 -2,-2 -3,-5 -3,-7 -1,-2 0,-5 1,-7 0,-1 1,-3 2,-4 1,-1 3,-4 5,-5 0,0 1,2 1,2 -4,3 1,10 13,19 0,0 1,0 1,0 9,6 19,12 28,19 4,2 7,4 9,7 2,2 3,5 4,7 0,3 0,5 -2,7 -1,2 -3,4 -5,6zm-48 -76l45 0c7,0 13,3 17,7 5,4 7,10 7,17l0 40c0,7 -2,13 -7,17 -4,5 -10,7 -17,7l-45 0c-7,0 -13,-2 -17,-7l0 0c-4,-4 -7,-10 -7,-17l0 -40c0,-7 3,-13 7,-17 4,-4 10,-7 17,-7zm45 5l-45 0c-5,0 -10,2 -13,6 -4,3 -6,8 -6,13l0 40c0,5 2,10 6,13l0 0c3,4 8,6 13,6l45 0c5,0 10,-2 13,-6 4,-3 6,-8 6,-13l0 -40c0,-5 -2,-10 -6,-13 -3,-4 -8,-6 -13,-6z"/>
  <path class="fil2" d="M160 164c-1,1 -2,1 -3,2 5,-4 -1,-12 -14,-20 -9,-6 -19,-12 -28,-18 -4,-3 -6,-5 -8,-8 -2,-2 -4,-5 -4,-7 -1,-2 0,-4 1,-7 1,-2 3,-4 6,-5 1,-1 2,-2 3,-2 -5,4 0,11 12,19 0,0 1,0 1,1 10,6 19,12 28,18 4,2 7,5 9,7 2,3 3,5 4,7 0,3 0,5 -1,7 -1,2 -3,4 -6,6zm-48 -76l45 0c7,0 13,3 17,7 5,5 7,11 7,17l0 40c0,7 -2,13 -7,17 -4,5 -10,7 -17,7l-45 0c-6,0 -12,-2 -17,-7l0 0c-4,-4 -7,-10 -7,-17l0 -40c0,-6 3,-12 7,-17 5,-4 11,-7 17,-7zm45 5l-45 0c-5,0 -10,3 -13,6 -3,3 -5,8 -5,13l0 40c0,5 2,10 5,14l0 0c3,3 8,5 13,5l45 0c5,0 10,-2 14,-5 3,-4 5,-9 5,-14l0 -40c0,-5 -2,-10 -5,-13 -4,-3 -9,-6 -14,-6z"/>
  <path class="fil3" d="M256 120l-26 0c-3,0 -5,1 -6,2 -1,1 -2,2 -2,4 0,2 1,3 2,3 1,1 3,2 5,2l13 0c6,0 10,1 13,2 2,2 3,5 3,10 0,4 -1,7 -4,9 -3,2 -7,3 -13,3l-28 0 0 -7 26 0c3,0 5,-1 6,-1 2,-1 2,-2 2,-4 0,-2 0,-3 -1,-4 -1,-1 -3,-1 -6,-1l-12 0c-6,0 -10,-1 -13,-3 -2,-2 -4,-5 -4,-9 0,-5 2,-8 4,-10 3,-2 8,-3 14,-3l27 0 0 7zm4 -7l11 0 12 32 9 -32 13 0 11 32 10 -32 11 0 -15 42 -13 0 -11 -31 -9 31 -12 0 -17 -42zm102 7c-4,0 -7,1 -8,3 -2,1 -3,4 -4,7l29 0 0 7 -29 0c0,4 1,7 3,8 2,2 5,3 9,3l17 0 0 7 -18 0c-3,0 -6,0 -9,-1 -2,0 -4,-1 -6,-3 -2,-1 -4,-3 -6,-6 -1,-3 -1,-6 -1,-10 0,-8 1,-13 5,-17 4,-3 10,-5 18,-5l17 0 0 7 -17 0zm48 0l-12 0 0 28 12 0c5,0 8,-1 10,-3 2,-2 2,-6 2,-11 0,-5 0,-9 -2,-11 -2,-2 -5,-3 -10,-3zm-22 -7l23 0c7,0 13,2 17,5 4,4 6,9 6,17 0,4 -1,7 -2,10 -1,3 -3,5 -6,6 -2,2 -4,3 -6,3 -2,1 -5,1 -9,1l-23 0 0 -42zm72 42c-4,0 -8,0 -10,-1 -2,0 -4,-2 -6,-3 -1,-2 -3,-3 -3,-5 -1,-2 -1,-5 -1,-8l0 -25 10 0 0 25c0,2 0,4 0,5 1,1 1,2 2,2 1,1 2,2 3,3 0,0 0,0 0,0 2,0 4,0 6,0l13 0 0 7 -14 0zm28 -42l0 25c0,4 1,7 2,9 2,1 5,2 9,2 4,0 7,-1 9,-2 1,-2 2,-5 2,-9l0 -25 10 0 0 25c0,3 0,6 0,8 -1,1 -1,3 -2,4 -2,2 -5,3 -8,4 -3,1 -6,2 -11,2 -4,0 -8,-1 -11,-2 -3,-1 -6,-2 -7,-4 -1,-1 -2,-3 -3,-4 0,-2 0,-4 0,-8l0 -25 10 0zm54 21l-17 -21 12 0 10 13 10 -13 12 0 -16 20 17 22 -12 0 -10 -15 -11 15 -13 0 18 -21zm43 -21l0 25c0,4 1,7 2,9 2,1 5,2 9,2 4,0 7,-1 9,-2 1,-2 2,-5 2,-9l0 -25 10 0 0 25c0,3 0,6 0,8 -1,1 -1,3 -2,4 -2,2 -5,3 -8,4 -3,1 -7,2 -11,2 -4,0 -8,-1 -11,-2 -3,-1 -6,-2 -8,-4 -1,-1 -1,-3 -2,-4 0,-2 0,-4 0,-8l0 -25 10 0zm66 7l-13 0 0 11 13 0c3,0 5,0 7,-1 1,-1 2,-2 2,-4 0,-2 -1,-4 -2,-4 -2,-1 -4,-2 -7,-2zm-24 -7l26 0c6,0 10,1 13,3 3,2 4,5 4,10 0,3 -1,6 -2,8 -2,2 -5,3 -8,4l13 17 -12 0 -11 -16 -12 0 0 16 -11 0 0 -42zm44 0l12 0 12 16 12 -16 12 0 -19 24 0 18 -10 0 0 -18 -19 -24z"/>
 </g>
</svg>
